<?xml version="1.0" encoding="UTF-8"?>
<svg viewBox="0 0 666.667 666.667" width="666.667" height="666.667" version="1.1" xmlns="http://www.w3.org/2000/svg">
  <g fill="#0866ff" fill-rule="evenodd">
    <!-- Combined path where "f" cuts out from the circular background -->
    <path d="M333.332 0.002C517.427 0.002 666.665 149.24 666.665 333.335C666.665 503.758 538.763 644.291 373.715 664.226V435.196H463.89L482.593 333.335H373.715V297.311C373.715 243.481 394.834 222.777 449.491 222.777C466.468 222.777 480.132 223.192 488 224.02V131.682C473.093 127.54 436.655 123.4 415.538 123.4C304.151 123.4 252.807 175.987 252.807 289.443V333.335H184.072V435.196H252.807V656.851C107.62 620.83 0 489.661 0 333.335C0 149.24 149.238 0.002 333.332 0.002Z"/>
  </g>
</svg>
